<svg id="Layer_1" data-name="Layer 1" xmlns="http://www.w3.org/2000/svg" viewBox="0 0 1296 1182"><defs><style>.cls-1{fill:#fff;}</style></defs><path class="cls-1" d="M1076.76,850.44h164.85c.41-5.72.9-9.44.91-13.15.16-49-.14-98,.62-147,.18-12.17-4.22-14.72-15.33-14.56-45.19.66-90.39.54-135.58.62-5.3,0-10.59-.56-17.32-.94v-169H832.58V331.05h21c68.43.07,136.86-.06,205.28.4,10.08.07,17.53-2.65,24.66-9.75q72.76-72.37,146.14-144.16c3.43-3.37,8-5.55,12.09-8.29l-3.4-3.39H830.09V332.51H664.9c-.52,3.31-1,4.95-1,6.59.06,52.8.34,105.6.09,158.4,0,9.47,4.94,9.83,12,9.82,39.71-.08,79.42.07,119.12.12,11.29,0,22.57,0,35.34,0v170h243.5c0,7,0,12,0,17,.09,47.31.11,94.62.41,141.92,0,4.81,1.82,9.6,2.72,14.34a35.46,35.46,0,0,0-5-.68c-75.57.13-151.15.49-226.72.25-10.68,0-18.08,3.62-25.42,11q-70.26,70.35-141.17,140c-4.65,4.59-9.9,8.58-14.87,12.85l2.28,2.87h409.18c0-28.08-.18-55,.05-82C1075.65,906.85,1076.29,878.65,1076.76,850.44ZM468.5,332.72a60.7,60.7,0,0,0-.79,6.27q-.12,256.49.05,513a20.75,20.75,0,0,0,5.48,13.2q72.68,73.29,146,146c1.8,1.8,4.36,2.85,7.6,4.9V332.72ZM52.86,330.87H64.54q86.75.08,173.5.14c72.18,0,144.36.06,216.54-.3,5.26,0,12-1.77,15.53-5.26C521,275.48,571.5,225.07,622,174.73c2.47-2.46,4.55-5.31,7.38-8.64-2.69-.54-3.88-1-5.07-1q-200.09-.13-400.17.09c-5.07,0-11.18,3.38-15,7.05Q178.91,201.08,149.67,231C117.5,263.8,85.66,297,52.86,330.87Z"/><path class="cls-1" d="M1077.13,850.73c-1-4.79-2.76-9.58-2.79-14.39-.3-47.3-.32-94.61-.41-141.92,0-5,0-10.06,0-17H830.43V507.45c-12.77,0-24,0-35.34,0-39.7-.05-79.41-.2-119.12-.12-7,0-12-.35-12-9.82.25-52.8,0-105.6-.09-158.4,0-1.64.48-3.28,1-6.59H830.09V165.86h408.28l3.4,3.39c-4.06,2.74-8.66,4.92-12.09,8.29q-73.26,71.9-146.14,144.16c-7.13,7.1-14.58,9.82-24.66,9.75-68.42-.46-136.85-.33-205.28-.4h-21V506.42h242.33v169c6.73.38,12,1,17.32.94,45.19-.08,90.39,0,135.58-.62,11.11-.16,15.51,2.39,15.33,14.56-.76,49-.46,98-.62,147,0,3.71-.5,7.43-.91,13.15H1076.76Z"/><path class="cls-1" d="M468.5,332.72H626.81V1016c-3.24-2-5.8-3.1-7.6-4.9q-73.14-72.84-146-146a20.75,20.75,0,0,1-5.48-13.2q-.33-256.48-.05-513A60.7,60.7,0,0,1,468.5,332.72Z"/><path class="cls-1" d="M52.86,330.87C85.66,297,117.5,263.8,149.67,231q29.24-29.85,59.48-58.71c3.85-3.67,10-7,15-7.05q200.08-.48,400.17-.09c1.19,0,2.38.44,5.07,1-2.83,3.33-4.91,6.18-7.38,8.64C571.5,225.07,521,275.48,470.11,325.45c-3.55,3.49-10.27,5.24-15.53,5.26-72.18.36-144.36.31-216.54.3q-86.74,0-173.5-.14Z"/><path class="cls-1" d="M1076.76,850.44c-.47,28.21-1.11,56.41-1.35,84.61-.23,26.93-.05,53.87-.05,82H666.18l-2.28-2.87c5-4.27,10.22-8.26,14.87-12.85q70.72-69.88,141.17-140c7.34-7.36,14.74-11,25.42-11,75.57.24,151.15-.12,226.72-.25a34,34,0,0,1,5,.7Z"/></svg>